<?xml version="1.0" standalone="no"?>
<!DOCTYPE svg PUBLIC "-//W3C//DTD SVG 20010904//EN"
 "http://www.w3.org/TR/2001/REC-SVG-20010904/DTD/svg10.dtd">
<svg version="1.0" xmlns="http://www.w3.org/2000/svg"
 width="128.000000pt" height="128.000000pt" viewBox="0 0 128.000000 128.000000"
 preserveAspectRatio="xMidYMid meet">

<g transform="translate(0.000000,128.000000) scale(0.100000,-0.100000)"
fill="#000000" stroke="none">
<path d="M92 984 c-30 -21 -52 -66 -52 -106 0 -38 30 -92 59 -108 20 -10 21
-19 21 -190 l0 -180 -35 0 c-42 0 -53 -18 -35 -61 25 -60 18 -59 590 -59 572
0 565 -1 590 59 22 53 11 61 -84 61 l-85 0 26 40 c23 35 31 40 65 40 58 0 88
34 88 100 0 64 -30 100 -83 100 -26 0 -36 5 -40 20 -5 19 -14 20 -171 20 -158
0 -166 1 -166 20 0 10 9 24 21 30 51 28 74 113 44 170 -31 61 -28 60 -395 60
-288 0 -339 -2 -358 -16z m102 -41 c-26 -62 -8 -137 41 -169 l25 -16 0 -179 0
-179 -50 0 -50 0 0 195 0 195 -24 10 c-54 20 -72 87 -35 134 16 20 29 26 61
26 34 0 39 -2 32 -17z m605 -9 c37 -47 19 -114 -35 -134 -19 -8 -24 -17 -24
-44 0 -30 -3 -35 -27 -38 -28 -3 -28 -3 -31 -93 -4 -111 2 -143 33 -189 l24
-36 -219 0 -220 0 0 195 0 195 -24 10 c-54 20 -72 87 -35 134 l20 26 259 0
259 0 20 -26z m281 -336 c0 -93 -16 -138 -63 -172 -24 -18 -43 -21 -117 -21
-74 0 -93 3 -117 21 -47 34 -63 79 -63 172 l0 82 180 0 180 0 0 -82z m108 30
c16 -16 16 -80 0 -96 -7 -7 -25 -12 -40 -12 -28 0 -28 1 -28 60 0 59 0 60 28
60 15 0 33 -5 40 -12z m2 -278 c0 -27 -54 -30 -550 -30 -496 0 -550 3 -550 30
0 6 203 10 550 10 347 0 550 -4 550 -10z"/>
<path d="M425 770 c-38 -39 -47 -52 -37 -62 10 -10 23 -1 62 37 28 27 49 54
47 59 -7 22 -25 14 -72 -34z"/>
<path d="M505 690 c-87 -87 -107 -112 -97 -122 10 -10 35 10 122 97 103 103
118 124 94 132 -5 2 -59 -46 -119 -107z"/>
<path d="M565 590 c-38 -39 -47 -52 -37 -62 10 -10 23 -1 62 37 48 47 56 65
34 72 -5 2 -32 -19 -59 -47z"/>
<path d="M923 893 c-7 -23 -8 -73 -4 -125 1 -5 7 -8 15 -8 32 0 45 152 14 158
-10 2 -19 -7 -25 -25z"/>
<path d="M1043 893 c-7 -23 -8 -73 -4 -125 1 -5 7 -8 15 -8 32 0 45 152 14
158 -10 2 -19 -7 -25 -25z"/>
</g>
</svg>
