<?xml version="1.0" standalone="no"?>
<!DOCTYPE svg PUBLIC "-//W3C//DTD SVG 20010904//EN"
 "http://www.w3.org/TR/2001/REC-SVG-20010904/DTD/svg10.dtd">
<svg version="1.0" xmlns="http://www.w3.org/2000/svg"
 width="32.000000pt" height="32.000000pt" viewBox="0 0 32.000000 32.000000"
 preserveAspectRatio="xMidYMid meet">

<g transform="translate(0.000000,32.000000) scale(0.100000,-0.100000)"
fill="#000000" stroke="none">
<path d="M0 160 l0 -160 160 0 160 0 0 160 0 160 -160 0 -160 0 0 -160z m190
21 c0 -25 -3 -28 -26 -23 -23 4 -25 2 -18 -24 4 -16 11 -33 15 -38 17 -19 9
-26 -30 -26 -30 0 -44 6 -55 22 -16 22 -22 99 -9 111 3 4 33 7 65 7 57 0 58 0
58 -29z m110 9 c0 -5 -4 -10 -10 -10 -5 0 -10 5 -10 10 0 6 5 10 10 10 6 0 10
-4 10 -10z m-262 -11 c-22 -12 -24 -59 -3 -59 8 0 15 -5 15 -11 0 -14 -21 -7
-33 13 -14 22 0 68 21 68 16 -1 16 -1 0 -11z m272 -23 c0 -19 -26 -67 -42 -77
-7 -5 -23 -9 -35 -9 -18 0 -23 6 -23 24 0 55 26 72 62 39 10 -9 18 -11 18 -5
0 6 -4 14 -10 17 -17 10 -11 25 10 25 11 0 20 -6 20 -14z m-121 -22 c7 5 11
-4 11 -25 0 -30 -1 -31 -18 -16 -10 9 -18 26 -19 39 -2 16 0 19 6 9 5 -7 14
-10 20 -7z m119 -86 c-3 -9 -39 -14 -119 -16 -120 -3 -164 2 -154 18 10 16
278 13 273 -2z"/>
</g>
</svg>
