<?xml version="1.0" standalone="no"?>
<!DOCTYPE svg PUBLIC "-//W3C//DTD SVG 20010904//EN"
 "http://www.w3.org/TR/2001/REC-SVG-20010904/DTD/svg10.dtd">
<svg version="1.0" xmlns="http://www.w3.org/2000/svg"
 width="64.000000pt" height="64.000000pt" viewBox="0 0 64.000000 64.000000"
 preserveAspectRatio="xMidYMid meet">

<g transform="translate(0.000000,64.000000) scale(0.100000,-0.100000)"
fill="#000000" stroke="none">
<path d="M230 625 c-16 -19 -6 -45 17 -44 11 0 13 3 6 6 -15 5 -18 33 -4 33
20 0 33 -32 29 -75 -3 -39 -1 -43 9 -28 18 23 16 74 -3 101 -18 26 -36 28 -54
7z"/>
<path d="M340 595 c-10 -12 -9 -22 2 -52 16 -41 14 -58 -11 -87 -15 -18 -15
-18 6 -7 30 15 39 54 23 101 -7 21 -9 43 -6 49 10 16 0 13 -14 -4z"/>
<path d="M311 523 c0 -12 -17 -37 -37 -56 -37 -34 -48 -77 -27 -98 6 -6 8 1 5
20 -3 23 4 37 33 69 26 29 35 48 32 64 -4 22 -4 22 -6 1z"/>
<path d="M391 505 c-1 -22 -8 -51 -18 -64 -12 -18 -13 -23 -2 -19 25 8 41 54
30 90 l-9 33 -1 -40z"/>
<path d="M297 403 c-4 -3 -7 -16 -7 -28 0 -16 -10 -23 -45 -33 -88 -23 -164
-120 -165 -209 0 -36 -3 -43 -19 -43 -11 0 -23 -5 -26 -10 -8 -14 13 -40 32
-40 8 0 21 -6 29 -14 21 -21 101 -28 276 -24 131 2 159 6 175 21 11 9 27 17
35 17 17 0 31 24 21 34 -4 3 -14 6 -22 6 -13 0 -17 11 -19 46 -4 93 -75 189
-160 215 -32 9 -41 17 -46 40 -4 22 -11 29 -29 29 -13 0 -27 -3 -30 -7z m43
-23 c0 -13 -7 -20 -20 -20 -19 0 -27 20 -13 33 13 14 33 6 33 -13z m75 -59
c42 -19 101 -78 114 -115 24 -62 23 -66 -5 -76 -41 -16 -62 -5 -60 33 1 26 -3
32 -19 32 -16 0 -20 -7 -20 -35 0 -33 -2 -35 -38 -38 -36 -3 -38 -2 -27 18 13
24 4 60 -14 60 -23 0 -37 -26 -30 -54 5 -23 3 -26 -20 -26 -29 0 -31 3 -15 32
9 16 7 24 -6 37 -15 15 -17 15 -30 -2 -7 -10 -11 -26 -8 -36 3 -12 -2 -20 -14
-23 -29 -8 -40 1 -35 28 6 30 -15 49 -36 32 -8 -7 -11 -21 -7 -40 7 -31 3 -33
-26 -18 -28 15 -24 58 10 112 55 87 188 124 286 79z m-235 -162 c0 -20 -15
-26 -25 -9 -9 15 3 43 15 35 5 -3 10 -15 10 -26z m90 12 c0 -11 -4 -22 -9 -25
-11 -7 -20 14 -13 32 7 19 22 14 22 -7z m87 3 c8 -21 -13 -42 -28 -27 -13 13
-5 43 11 43 6 0 13 -7 17 -16z m98 -14 c-5 -8 -11 -8 -17 -2 -6 6 -7 16 -3 22
5 8 11 8 17 2 6 -6 7 -16 3 -22z m-211 -47 c161 -4 146 -4 234 -1 69 3 86 -2
60 -18 -13 -8 -412 -6 -434 3 -8 3 -14 12 -14 20 0 8 5 11 12 7 6 -4 71 -9
142 -11z m191 -42 l160 -6 -135 -8 c-186 -11 -402 -6 -408 11 -4 13 95 14 383
3z m90 -43 c-28 -17 -383 -17 -410 0 -16 9 27 11 205 11 176 0 221 -2 205 -11z"/>
</g>
</svg>
